<svg width="156" height="24" viewBox="0 0 156 24" fill="none" xmlns="http://www.w3.org/2000/svg">
<path d="M15.3765 11.8202H15.9842V15.0461C15.6039 15.4073 15.1409 15.6823 14.5952 15.8711C14.0578 16.0598 13.4874 16.1542 12.8838 16.1542C12.024 16.1542 11.2469 15.9655 10.5524 15.5879C9.86616 15.2103 9.32464 14.689 8.92779 14.0242C8.53921 13.3593 8.34493 12.6123 8.34493 11.7833C8.34493 10.9542 8.53921 10.2073 8.92779 9.54241C9.32464 8.87753 9.86616 8.3563 10.5524 7.97872C11.2469 7.60113 12.0281 7.41234 12.8962 7.41234C13.5328 7.41234 14.1157 7.51494 14.6448 7.72015C15.1822 7.91715 15.6411 8.20855 16.0214 8.59434L15.6245 9.01297C15.2608 8.6518 14.8515 8.39324 14.3968 8.23728C13.9504 8.07311 13.4543 7.99103 12.9086 7.99103C12.1646 7.99103 11.4907 8.1552 10.8872 8.48353C10.2919 8.81186 9.82483 9.26743 9.48585 9.85022C9.14688 10.4248 8.9774 11.0692 8.9774 11.7833C8.9774 12.4892 9.14688 13.1336 9.48585 13.7164C9.83309 14.2909 10.3043 14.7465 10.8996 15.0831C11.4949 15.4114 12.1646 15.5756 12.9086 15.5756C13.9008 15.5756 14.7234 15.3129 15.3765 14.7876V11.8202Z" fill="#B3E5DA"/>
<path d="M24.7574 15.5263V16.0927H18.7675V7.4739H24.5714V8.04028H19.4V11.4385H24.0257V11.9926H19.4V15.5263H24.7574Z" fill="#B3E5DA"/>
<path d="M28.7252 8.04028H25.6V7.4739H32.4828V8.04028H29.3576V16.0927H28.7252V8.04028Z" fill="#B3E5DA"/>
<path d="M42.5814 13.7902H37.7449L36.7031 16.0927H35.7482L39.7167 7.4739H40.622L44.5904 16.0927H43.6231L42.5814 13.7902ZM42.2466 13.0515L40.1631 8.42197L38.0797 13.0515H42.2466Z" fill="#B3E5DA"/>
<path d="M53.2813 7.4739V16.0927H52.5248L46.9442 9.09916V16.0927H46.0265V7.4739H46.783L52.376 14.4674V7.4739H53.2813Z" fill="#B3E5DA"/>
<path d="M59.2424 7.4739H61.2514V16.0927H59.2424V7.4739Z" fill="#B3E5DA"/>
<path d="M71.2733 7.4739V16.0927H69.6239L65.2958 10.8598V16.0927H63.3116V7.4739H64.9734L69.2891 12.7067V7.4739H71.2733Z" fill="#B3E5DA"/>
<path d="M75.1254 9.09916H72.3475V7.4739H79.9123V9.09916H77.1344V16.0927H75.1254V9.09916Z" fill="#B3E5DA"/>
<path d="M87.7148 14.4921V16.0927H80.9933V7.4739H87.5536V9.07453H82.9899V10.946H87.0203V12.4974H82.9899V14.4921H87.7148Z" fill="#B3E5DA"/>
<path d="M94.8444 16.0927L93.1702 13.6917H91.3224V16.0927H89.3133V7.4739H93.071C93.8399 7.4739 94.5054 7.60113 95.0676 7.85559C95.6381 8.11005 96.0762 8.47122 96.3821 8.93909C96.688 9.40697 96.841 9.96103 96.841 10.6013C96.841 11.2415 96.6839 11.7956 96.3697 12.2635C96.0638 12.7231 95.6256 13.0761 95.0552 13.3224L97.0022 16.0927H94.8444ZM94.8072 10.6013C94.8072 10.117 94.6501 9.74762 94.3359 9.49316C94.0217 9.23049 93.5629 9.09916 92.9594 9.09916H91.3224V12.1034H92.9594C93.5629 12.1034 94.0217 11.9721 94.3359 11.7094C94.6501 11.4467 94.8072 11.0774 94.8072 10.6013Z" fill="#B3E5DA"/>
<path d="M106.779 7.4739L103.021 16.0927H101.037L97.2918 7.4739H99.462L102.104 13.6302L104.782 7.4739H106.779Z" fill="#B3E5DA"/>
<path d="M114.225 14.4921V16.0927H107.504V7.4739H114.064V9.07453H109.5V10.946H113.531V12.4974H109.5V14.4921H114.225Z" fill="#B3E5DA"/>
<path d="M123.785 7.4739V16.0927H122.136L117.808 10.8598V16.0927H115.824V7.4739H117.486L121.801 12.7067V7.4739H123.785Z" fill="#B3E5DA"/>
<path d="M127.638 9.09916H124.86V7.4739H132.424V9.09916H129.647V16.0927H127.638V9.09916Z" fill="#B3E5DA"/>
<path d="M133.505 7.4739H135.514V16.0927H133.505V7.4739Z" fill="#B3E5DA"/>
<path d="M141.779 16.2404C140.878 16.2404 140.063 16.0475 139.336 15.6617C138.616 15.2759 138.05 14.7465 137.637 14.0734C137.232 13.3921 137.029 12.6288 137.029 11.7833C137.029 10.9378 137.232 10.1786 137.637 9.50547C138.05 8.82418 138.616 8.29063 139.336 7.90484C140.063 7.51905 140.878 7.32615 141.779 7.32615C142.68 7.32615 143.49 7.51905 144.209 7.90484C144.929 8.29063 145.495 8.82418 145.908 9.50547C146.322 10.1786 146.528 10.9378 146.528 11.7833C146.528 12.6288 146.322 13.3921 145.908 14.0734C145.495 14.7465 144.929 15.2759 144.209 15.6617C143.49 16.0475 142.68 16.2404 141.779 16.2404ZM141.779 14.5413C142.291 14.5413 142.754 14.4264 143.168 14.1965C143.581 13.9585 143.903 13.6302 144.135 13.2115C144.375 12.7929 144.495 12.3168 144.495 11.7833C144.495 11.2497 144.375 10.7737 144.135 10.355C143.903 9.93641 143.581 9.61218 143.168 9.38235C142.754 9.1443 142.291 9.02528 141.779 9.02528C141.266 9.02528 140.803 9.1443 140.39 9.38235C139.976 9.61218 139.65 9.93641 139.41 10.355C139.179 10.7737 139.063 11.2497 139.063 11.7833C139.063 12.3168 139.179 12.7929 139.41 13.2115C139.65 13.6302 139.976 13.9585 140.39 14.1965C140.803 14.4264 141.266 14.5413 141.779 14.5413Z" fill="#B3E5DA"/>
<path d="M156 7.4739V16.0927H154.351L150.023 10.8598V16.0927H148.038V7.4739H149.7L154.016 12.7067V7.4739H156Z" fill="#B3E5DA"/>
<path fill-rule="evenodd" clip-rule="evenodd" d="M18.7675 24L12.0746 24C5.40598 24 -2.91495e-07 18.6274 0 12C2.91494e-07 5.37258 5.40597 1.00145e-08 12.0746 1.36061e-08L18.7675 0V1.37143H12.0746C6.16811 1.37143 1.37995 6.13 1.37995 12C1.37995 17.87 6.16811 22.6286 12.0746 22.6286L18.7675 22.6286V24Z" fill="#B3E5DA"/>
</svg>
